<svg width="90.000000" height="90.000000" viewBox="0 0 90 90" fill="none" xmlns="http://www.w3.org/2000/svg" xmlns:xlink="http://www.w3.org/1999/xlink">
	<desc>
			Created with Pixso.
	</desc>
	<defs>
		<linearGradient x1="30.149994" y1="27.675011" x2="61.875000" y2="61.875019" id="paint_linear_4_122_0" gradientUnits="userSpaceOnUse">
			<stop offset="0.015267" stop-color="#AF99CC"/>
			<stop offset="1.000000" stop-color="#14AF51"/>
		</linearGradient>
	</defs>
	<path id="Логотип" d="M44.5 0L45.49 0C46.58 0 47.47 0.88 47.47 1.97L47.47 15.82L42.52 15.82L42.52 1.97C42.52 0.88 43.41 0 44.5 0ZM32.56 4.5L33.51 4.22C34.56 3.92 35.65 4.53 35.95 5.58L39.22 16.99L34.47 18.35L31.2 6.94C31.15 6.76 31.12 6.58 31.12 6.4C31.12 5.54 31.69 4.75 32.56 4.5ZM56.48 4.22L57.43 4.5C58.3 4.75 58.87 5.54 58.87 6.4C58.87 6.58 58.84 6.76 58.79 6.94L55.52 18.35L50.77 16.99L54.04 5.58C54.34 4.53 55.43 3.92 56.48 4.22ZM29.05 20.44L26.28 16.63C26.1 16.38 25.86 16.18 25.58 16.03C25.3 15.89 25 15.82 24.68 15.82L15.91 15.82C15.8 15.82 15.7 15.83 15.6 15.87C15.49 15.9 15.4 15.94 15.31 16.01C15.12 16.13 14.99 16.29 14.91 16.5C14.88 16.57 14.86 16.63 14.85 16.7C14.84 16.77 14.83 16.83 14.83 16.9L14.83 27.13C14.83 27.33 14.86 27.51 14.91 27.69C14.96 27.87 15.04 28.04 15.14 28.2C15.35 28.53 15.63 28.77 15.98 28.93L20.11 30.84L18.45 34.43L14.32 32.52C13.8 32.28 13.33 31.97 12.9 31.6C12.69 31.42 12.5 31.22 12.32 31.02C12.13 30.8 11.96 30.57 11.81 30.33C11.66 30.09 11.52 29.84 11.4 29.58C11.29 29.34 11.2 29.08 11.12 28.82C11.04 28.55 10.98 28.29 10.94 28.02C10.9 27.73 10.87 27.43 10.87 27.13L10.87 16.9C10.87 16.58 10.9 16.26 10.96 15.95C11.02 15.64 11.11 15.33 11.23 15.03C11.33 14.79 11.45 14.55 11.58 14.33C11.71 14.12 11.85 13.92 12 13.73C12.15 13.54 12.32 13.36 12.5 13.2C12.68 13.03 12.88 12.87 13.09 12.73C13.3 12.59 13.52 12.46 13.75 12.35C13.96 12.25 14.19 12.16 14.42 12.09C14.65 12.02 14.89 11.96 15.13 11.92C15.39 11.88 15.65 11.86 15.91 11.86L24.68 11.86C25.16 11.86 25.62 11.92 26.07 12.02C26.52 12.13 26.95 12.29 27.38 12.51C28.22 12.94 28.92 13.54 29.48 14.31L32.25 18.12L29.05 20.44ZM63.71 16.63L60.94 20.44L57.74 18.12L60.51 14.31C61.07 13.54 61.77 12.94 62.61 12.51C63.04 12.29 63.47 12.13 63.92 12.02C64.37 11.92 64.83 11.86 65.31 11.86L74.08 11.86C74.34 11.86 74.6 11.88 74.86 11.92C75.1 11.96 75.34 12.02 75.57 12.09C75.8 12.16 76.03 12.25 76.24 12.35C76.47 12.46 76.69 12.59 76.9 12.73C77.11 12.87 77.31 13.03 77.49 13.2C77.67 13.36 77.84 13.54 77.99 13.73C78.14 13.92 78.28 14.12 78.41 14.33C78.54 14.55 78.66 14.79 78.76 15.03C78.88 15.33 78.97 15.64 79.03 15.95C79.09 16.26 79.12 16.58 79.12 16.9L79.12 27.13C79.12 27.43 79.09 27.73 79.05 28.02C79.01 28.29 78.95 28.55 78.87 28.82C78.79 29.08 78.7 29.34 78.59 29.58C78.47 29.84 78.33 30.09 78.18 30.33C78.03 30.57 77.86 30.8 77.67 31.02C77.49 31.22 77.3 31.42 77.09 31.6C76.66 31.97 76.19 32.28 75.67 32.52L71.54 34.43L69.88 30.84L74.01 28.93C74.36 28.77 74.64 28.53 74.85 28.2C74.95 28.04 75.03 27.87 75.08 27.69C75.13 27.51 75.16 27.33 75.16 27.13L75.16 16.9C75.16 16.83 75.15 16.77 75.14 16.7C75.13 16.63 75.11 16.57 75.08 16.5C75 16.29 74.87 16.13 74.68 16.01C74.59 15.94 74.5 15.9 74.39 15.87C74.29 15.83 74.19 15.82 74.08 15.82L65.31 15.82C64.99 15.82 64.69 15.89 64.41 16.03C64.13 16.18 63.89 16.38 63.71 16.63ZM29.67 62.3C28.57 62.3 27.69 61.42 27.69 60.32L27.69 29.67C27.69 28.57 28.57 27.69 29.67 27.69L60.32 27.69C61.42 27.69 62.3 28.57 62.3 29.67L62.3 60.32C62.3 61.42 61.42 62.3 60.32 62.3L29.67 62.3ZM32.63 32.63L32.63 57.36L57.36 57.36L57.36 32.63L32.63 32.63ZM1.97 36.59L15.82 36.59L15.82 41.53L1.97 41.53C0.88 41.53 0 40.65 0 39.56L0 38.57C0 37.47 0.88 36.59 1.97 36.59ZM74.17 36.59L88.02 36.59C89.11 36.59 90 37.47 90 38.57L90 39.56C90 40.65 89.11 41.53 88.02 41.53L74.17 41.53L74.17 36.59ZM18.79 42.52L21.75 42.52C22.3 42.52 22.74 42.97 22.74 43.51L22.74 46.48C22.74 47.02 22.3 47.47 21.75 47.47L18.79 47.47C18.24 47.47 17.8 47.02 17.8 46.48L17.8 43.51C17.8 42.97 18.24 42.52 18.79 42.52ZM68.24 42.52L71.2 42.52C71.75 42.52 72.19 42.97 72.19 43.51L72.19 46.48C72.19 47.02 71.75 47.47 71.2 47.47L68.24 47.47C67.69 47.47 67.25 47.02 67.25 46.48L67.25 43.51C67.25 42.97 67.69 42.52 68.24 42.52ZM1.97 48.46L15.82 48.46L15.82 53.4L1.97 53.4C0.88 53.4 0 52.52 0 51.42L0 50.43C0 49.34 0.88 48.46 1.97 48.46ZM74.17 48.46L88.02 48.46C89.11 48.46 90 49.34 90 50.43L90 51.42C90 52.52 89.11 53.4 88.02 53.4L74.17 53.4L74.17 48.46ZM26.28 73.36L29.05 69.55L32.25 71.87L29.48 75.68C28.92 76.45 28.22 77.05 27.38 77.48C26.95 77.7 26.52 77.86 26.07 77.97C25.62 78.07 25.16 78.13 24.68 78.13L15.91 78.13C15.65 78.13 15.39 78.11 15.13 78.07C14.89 78.03 14.65 77.97 14.42 77.9C14.19 77.83 13.96 77.74 13.75 77.64C13.52 77.53 13.3 77.4 13.09 77.26C12.88 77.12 12.68 76.96 12.5 76.79C12.32 76.63 12.15 76.45 12 76.26C11.85 76.07 11.71 75.87 11.58 75.66C11.45 75.44 11.33 75.2 11.23 74.96C11.11 74.66 11.02 74.35 10.96 74.04C10.9 73.73 10.87 73.41 10.87 73.09L10.87 62.86C10.87 62.56 10.9 62.26 10.94 61.97C10.98 61.7 11.04 61.44 11.12 61.17C11.2 60.91 11.29 60.66 11.4 60.41C11.52 60.15 11.66 59.9 11.81 59.66C11.96 59.42 12.13 59.19 12.32 58.97C12.5 58.77 12.69 58.57 12.9 58.39C13.33 58.02 13.8 57.71 14.32 57.47L18.45 55.56L20.11 59.15L15.98 61.06C15.63 61.22 15.35 61.46 15.14 61.79C15.04 61.95 14.96 62.12 14.91 62.3C14.86 62.48 14.83 62.66 14.83 62.86L14.83 73.09C14.83 73.16 14.84 73.22 14.85 73.29C14.86 73.36 14.88 73.42 14.91 73.49C14.99 73.69 15.12 73.86 15.31 73.98C15.4 74.05 15.49 74.09 15.6 74.12C15.7 74.16 15.8 74.17 15.91 74.17L24.68 74.17C25 74.17 25.3 74.1 25.58 73.96C25.86 73.81 26.1 73.61 26.28 73.36ZM60.94 69.55L63.71 73.36C63.89 73.61 64.13 73.81 64.41 73.96C64.69 74.1 64.99 74.17 65.31 74.17L74.08 74.17C74.19 74.17 74.29 74.16 74.39 74.12C74.5 74.09 74.59 74.05 74.68 73.98C74.87 73.86 75 73.69 75.08 73.49C75.11 73.42 75.13 73.36 75.14 73.29C75.15 73.22 75.16 73.16 75.16 73.09L75.16 62.86C75.16 62.66 75.13 62.48 75.08 62.3C75.03 62.12 74.95 61.95 74.85 61.79C74.64 61.46 74.36 61.22 74.01 61.06L69.88 59.15L71.54 55.56L75.67 57.47C76.19 57.71 76.66 58.02 77.09 58.39C77.3 58.57 77.49 58.77 77.67 58.97C77.86 59.19 78.03 59.42 78.18 59.66C78.33 59.9 78.47 60.15 78.59 60.41C78.7 60.66 78.79 60.91 78.87 61.17C78.95 61.44 79.01 61.7 79.05 61.97C79.09 62.26 79.12 62.56 79.12 62.86L79.12 73.09C79.12 73.41 79.09 73.73 79.03 74.04C78.97 74.35 78.88 74.66 78.76 74.96C78.66 75.2 78.54 75.44 78.41 75.66C78.28 75.87 78.14 76.07 77.99 76.26C77.84 76.45 77.67 76.63 77.49 76.79C77.31 76.96 77.11 77.12 76.9 77.26C76.69 77.4 76.47 77.53 76.24 77.64C76.03 77.74 75.8 77.83 75.57 77.9C75.34 77.97 75.1 78.03 74.86 78.07C74.6 78.11 74.34 78.13 74.08 78.13L65.31 78.13C64.83 78.13 64.37 78.07 63.92 77.97C63.47 77.86 63.04 77.7 62.61 77.48C61.77 77.05 61.07 76.45 60.51 75.68L57.74 71.87L60.94 69.55ZM33.51 85.77L32.56 85.49C31.69 85.24 31.12 84.45 31.12 83.59C31.12 83.41 31.15 83.23 31.2 83.05L34.47 71.64L39.22 73L35.95 84.41C35.65 85.46 34.56 86.07 33.51 85.77ZM57.43 85.49L56.48 85.77C55.43 86.07 54.34 85.46 54.04 84.41L50.77 73L55.52 71.64L58.79 83.05C58.84 83.23 58.87 83.41 58.87 83.59C58.87 84.45 58.3 85.24 57.43 85.49ZM44.5 90C43.41 90 42.52 89.11 42.52 88.02L42.52 74.17L47.47 74.17L47.47 88.02C47.47 89.11 46.58 90 45.49 90L44.5 90Z" fill="url(#paint_linear_4_122_0)" fill-opacity="1.000000" fill-rule="evenodd"/>
</svg>
